<svg xmlns="http://www.w3.org/2000/svg" width="115.376" height="38.239" viewBox="0 0 115.376 38.239"><path d="M-210.2,517.692c-4.37-.626-8.727-1.359-13.107-1.9a83,83,0,0,0-19.569.185,94.826,94.826,0,0,0-19,4.341,14.2,14.2,0,0,1-4.25.691,22.374,22.374,0,0,1-7.795-1.043,91.381,91.381,0,0,0-24.485-4.561,88.622,88.622,0,0,0-11.591.247,123.837,123.837,0,0,0-15,2.151c.025.456.037.865.072,1.273.112,1.284.316,2.567.324,3.851a1.8,1.8,0,0,0,1.309,2.021,3.2,3.2,0,0,1,.878.54,3.637,3.637,0,0,1,1.611,2.683c.213,2.2.5,4.39.784,6.579a30.183,30.183,0,0,0,2.11,8.124,16.543,16.543,0,0,0,9.882,8.991,29.693,29.693,0,0,0,15.13,1.176c8.849-1.336,15.1-6.193,18.468-14.55,1.323-3.283,2.484-6.631,3.669-9.968a1.491,1.491,0,0,1,1.518-1.134q2-.025,4,.021a1.376,1.376,0,0,1,1.36,1.044c1.294,3.566,2.554,7.148,3.979,10.662a21.8,21.8,0,0,0,14.359,13.074,30.894,30.894,0,0,0,17.386.188A17.442,17.442,0,0,0-218.2,545.6a20.4,20.4,0,0,0,3.187-8.457c.53-2.94.871-5.917,1.2-8.889a3.884,3.884,0,0,1,2.069-3.059c.413-.249.862-.442,1.264-.707a.827.827,0,0,0,.356-.515c.181-1.855.32-3.715.495-5.571C-209.588,517.942-209.731,517.759-210.2,517.692Zm-70.775,25.567a17.312,17.312,0,0,1-12.391,7.5,25.426,25.426,0,0,1-11.741-.818,15.306,15.306,0,0,1-7.908-5.747,19.216,19.216,0,0,1-2.563-6.222,30.377,30.377,0,0,1-.951-11.151,6.3,6.3,0,0,1,1.141-2.686,11.256,11.256,0,0,1,7.969-4.843c2.747-.4,5.534-.531,8.3-.78l.018.178a59.552,59.552,0,0,1,13.235,1.292,25.439,25.439,0,0,1,4.635,1.731,7.152,7.152,0,0,1,4.279,6.46A24.077,24.077,0,0,1-280.976,543.259Zm63.076-14.223a34.749,34.749,0,0,1-2.327,12.554,14.041,14.041,0,0,1-7.25,7.519,21.406,21.406,0,0,1-11.651,1.848,23.4,23.4,0,0,1-5.8-1.121,17.766,17.766,0,0,1-11.371-12.1,28.291,28.291,0,0,1-1.418-8.682,7.942,7.942,0,0,1,4.826-7.638,22.484,22.484,0,0,1,7.962-2.115c3.829-.3,7.672-.47,11.512-.566a26.254,26.254,0,0,1,7.925.946,11.766,11.766,0,0,1,4.716,2.643C-218.6,524.295-217.527,526.7-217.9,529.036Z" transform="translate(325 -515.298)"/></svg>